<?xml version="1.0" encoding="UTF-8" standalone="no"?>
<svg
   xmlns:dc="http://purl.org/dc/elements/1.1/"
   xmlns:cc="http://creativecommons.org/ns#"
   xmlns:rdf="http://www.w3.org/1999/02/22-rdf-syntax-ns#"
   xmlns:svg="http://www.w3.org/2000/svg"
   xmlns="http://www.w3.org/2000/svg"
   xmlns:sodipodi="http://sodipodi.sourceforge.net/DTD/sodipodi-0.dtd"
   xmlns:inkscape="http://www.inkscape.org/namespaces/inkscape"
   width="185pt"
   height="38pt"
   viewBox="0 0 185 38"
   version="1.1"
   id="svg2"
   inkscape:version="0.91 r13725"
   sodipodi:docname="logo-removebg-preview.svg">
  <metadata
     id="metadata243">
    <rdf:RDF>
      <cc:Work
         rdf:about="">
        <dc:format>image/svg+xml</dc:format>
        <dc:type
           rdf:resource="http://purl.org/dc/dcmitype/StillImage" />
      </cc:Work>
    </rdf:RDF>
  </metadata>
  <defs
     id="defs241" />
  <sodipodi:namedview
     pagecolor="#ffffff"
     bordercolor="#666666"
     borderopacity="1"
     objecttolerance="10"
     gridtolerance="10"
     guidetolerance="10"
     inkscape:pageopacity="0"
     inkscape:pageshadow="2"
     inkscape:window-width="1536"
     inkscape:window-height="801"
     id="namedview239"
     showgrid="false"
     inkscape:zoom="1.2454054"
     inkscape:cx="115.625"
     inkscape:cy="55.868056"
     inkscape:window-x="-8"
     inkscape:window-y="-8"
     inkscape:window-maximized="1"
     inkscape:current-layer="svg2" />
  <g
     id="#b6bbd9e1">
    <path
       fill="#b6bbd9"
       opacity="0.88"
       d=" M 10.42 0.96 C 10.89 0.98 11.82 1.01 12.29 1.02 C 11.70 1.18 10.53 1.51 9.95 1.67 L 10.42 0.96 Z"
       id="path5" />
  </g>
  <g
     id="#5267dfff">
    <path
       fill="#5267df"
       opacity="1.00"
       d=" M 12.29 1.02 C 18.57 0.14 25.36 2.82 28.74 8.32 C 32.92 14.65 31.64 23.99 25.62 28.72 C 21.73 32.28 16.08 32.59 11.14 31.67 C 5.41 30.17 1.36 24.94 0.00 19.34 L 0.00 13.51 C 1.37 8.22 6.55 5.53 9.95 1.67 C 10.53 1.51 11.70 1.18 12.29 1.02 M 12.18 9.92 C 9.92 14.49 11.70 19.93 11.22 24.86 C 12.73 23.44 14.20 21.97 15.73 20.55 C 17.18 21.94 18.61 23.34 20.07 24.73 C 20.02 20.14 19.93 15.55 20.05 10.96 C 17.77 9.19 14.84 9.89 12.18 9.92 Z"
       id="path8" />
  </g>
  <path
     style="opacity:1;fill:#ffffff;fill-opacity:1;fill-rule:nonzero"
     d=""
     id="path4375"
     inkscape:connector-curvature="0"
     transform="scale(0.8,0.8)" />
  <path
     style="opacity:1;fill:#ffffff;fill-opacity:1;fill-rule:nonzero"
     d=""
     id="path4377"
     inkscape:connector-curvature="0"
     transform="scale(0.8,0.8)" />
  <path
     style="opacity:1;fill:#ffffff;fill-opacity:1;fill-rule:nonzero"
     d=""
     id="path4383"
     inkscape:connector-curvature="0"
     transform="scale(0.8,0.8)" />
</svg>
